<?xml version="1.0" standalone="no"?><!DOCTYPE svg PUBLIC "-//W3C//DTD SVG 1.1//EN" "http://www.w3.org/Graphics/SVG/1.1/DTD/svg11.dtd"><svg t="1624180648519" class="icon" viewBox="0 0 1024 1024" version="1.1" xmlns="http://www.w3.org/2000/svg" p-id="2075" xmlns:xlink="http://www.w3.org/1999/xlink" width="128" height="128"><defs><style type="text/css"></style></defs><path d="M906.666667 938.666667h-789.333334A32 32 0 0 1 85.333333 906.666667v-789.333334a32 32 0 0 1 64 0V874.666667h757.333334a32 32 0 0 1 0 64zM853.333333 832h-64a42.666667 42.666667 0 0 1-42.666666-42.666667V320a42.666667 42.666667 0 0 1 42.666666-42.666667h64a42.666667 42.666667 0 0 1 42.666667 42.666667v469.333333a42.666667 42.666667 0 0 1-42.666667 42.666667z m-256 0h-64a42.666667 42.666667 0 0 1-42.666666-42.666667V405.333333a42.666667 42.666667 0 0 1 42.666666-42.666666h64a42.666667 42.666667 0 0 1 42.666667 42.666666v384a42.666667 42.666667 0 0 1-42.666667 42.666667z m-256 0h-64a42.666667 42.666667 0 0 1-42.666666-42.666667V234.666667a42.666667 42.666667 0 0 1 42.666666-42.666667h64a42.666667 42.666667 0 0 1 42.666667 42.666667v554.666666a42.666667 42.666667 0 0 1-42.666667 42.666667z" p-id="2076"></path></svg>