<?xml version="1.0" standalone="no"?><!DOCTYPE svg PUBLIC "-//W3C//DTD SVG 1.1//EN" "http://www.w3.org/Graphics/SVG/1.1/DTD/svg11.dtd"><svg t="1623915667573" class="icon" viewBox="0 0 1024 1024" version="1.1" xmlns="http://www.w3.org/2000/svg" p-id="5048" xmlns:xlink="http://www.w3.org/1999/xlink" width="128" height="128"><defs><style type="text/css"></style></defs><path d="M936.32 761.6 622.912 761.6l23.744 140.8c3.392 12.864-5.76 25.6-18.368 25.6L395.712 928c-12.608 0-21.76-12.736-18.368-25.6l23.744-140.8L87.68 761.6c-41.344 0-74.88-35.456-74.88-79.232L12.8 175.232C12.8 131.456 46.336 96 87.68 96l848.64 0c41.344 0 74.88 35.456 74.88 79.232l0 507.136C1011.2 726.144 977.664 761.6 936.32 761.6zM743.616 306.112l-27.648-26.112c-7.616-7.232-19.968-7.232-27.648 0L505.152 454.912 408.512 363.456c-7.616-7.232-19.968-7.232-27.648 0L353.216 389.632C345.6 396.8 345.6 408.512 353.216 415.744l138.112 130.624c7.616 7.232 19.968 7.232 27.648 0l224.64-214.144C751.232 325.056 751.232 313.344 743.616 306.112z" p-id="5049"></path></svg>