<?xml version="1.0" standalone="no"?><!DOCTYPE svg PUBLIC "-//W3C//DTD SVG 1.1//EN" "http://www.w3.org/Graphics/SVG/1.1/DTD/svg11.dtd"><svg t="1624180337152" class="icon" viewBox="0 0 1024 1024" version="1.1" xmlns="http://www.w3.org/2000/svg" p-id="11447" xmlns:xlink="http://www.w3.org/1999/xlink" width="128" height="128"><defs><style type="text/css"></style></defs><path d="M836.416 187.754667A457.237333 457.237333 0 0 1 970.666667 512a457.173333 457.173333 0 0 1-127.317334 317.162667l-6.656 6.805333-45.312-45.226667A393.258667 393.258667 0 0 0 906.666667 512a393.173333 393.173333 0 0 0-109.12-272.426667l-6.4-6.570666 45.269333-45.226667zM187.968 187.392l45.226667 45.290667A393.258667 393.258667 0 0 0 117.333333 512a393.173333 393.173333 0 0 0 108.8 272.085333l6.378667 6.549334-45.333333 45.205333A457.237333 457.237333 0 0 1 53.333333 512c0-123.413333 49.024-239.146667 134.613334-324.608z m90.538667 90.474667l45.184 45.312A265.685333 265.685333 0 0 0 245.333333 512c0 69.546667 26.688 134.741333 73.6 183.957333l5.290667 5.397334-45.056 45.44A329.685333 329.685333 0 0 1 181.333333 512c0-89.024 35.392-172.522667 97.173334-234.133333z m467.328 0.32A329.664 329.664 0 0 1 842.666667 512a329.6 329.6 0 0 1-91.157334 227.989333l-5.888 6.037334-45.226666-45.312A265.685333 265.685333 0 0 0 778.666667 512a265.6 265.6 0 0 0-72.853334-183.168l-5.248-5.376 45.269334-45.269333z m-377.578667 90.944l45.397333 45.12A138.112 138.112 0 0 0 373.333333 512c0 35.285333 13.205333 68.394667 36.501334 93.76l4.224 4.394667-45.226667 45.312A202.090667 202.090667 0 0 1 309.333333 512a202.090667 202.090667 0 0 1 58.922667-142.869333z m287.36-0.128A202.090667 202.090667 0 0 1 714.666667 512a202.026667 202.026667 0 0 1-54.016 137.749333l-4.778667 4.992-45.44-45.077333A138.090667 138.090667 0 0 0 650.666667 512a138.026667 138.026667 0 0 0-35.989334-93.184l-4.416-4.650667 45.354667-45.162666zM512 426.666667a85.333333 85.333333 0 1 1 0 170.666666 85.333333 85.333333 0 0 1 0-170.666666z" fill="#1baf08" p-id="11448"></path></svg>