<?xml version="1.0" standalone="no"?><!DOCTYPE svg PUBLIC "-//W3C//DTD SVG 1.1//EN" "http://www.w3.org/Graphics/SVG/1.1/DTD/svg11.dtd"><svg t="1624179515041" class="icon" viewBox="0 0 1024 1024" version="1.1" xmlns="http://www.w3.org/2000/svg" p-id="8268" xmlns:xlink="http://www.w3.org/1999/xlink" width="128" height="128"><defs><style type="text/css"></style></defs><path d="M571 98.641l267.98 154.718c37.128 21.436 60 61.051 60 103.923v309.436c0 42.872-22.872 82.487-60 103.923L571 925.359c-37.128 21.436-82.872 21.436-120 0L183.02 770.641c-37.128-21.436-60-61.051-60-103.923V357.282c0-42.872 22.872-82.487 60-103.923L451 98.641c37.128-21.436 82.872-21.436 120 0z m-91.405 48.158l-0.595 0.34-267.98 154.717a64.011 64.011 0 0 0-32 54.74v310.122a64 64 0 0 0 31.409 55.08l0.592 0.346L479 876.862a64 64 0 0 0 63.405 0.34l0.595-0.34 267.98-154.718a64.011 64.011 0 0 0 32-54.74V357.281a64 64 0 0 0-31.409-55.08l-0.592-0.346L543 147.138a64 64 0 0 0-63.405-0.34zM511.5 624c27.338 0 49.5 22.162 49.5 49.5S538.838 723 511.5 723 462 700.838 462 673.5s22.162-49.5 49.5-49.5z m7.2-324c22.091 0 40 17.909 40 40a40 40 0 0 1-0.062 2.234l-12.147 217.15C545.467 577.684 530.33 592 512 592c-18.33 0-33.467-14.315-34.491-32.616l-12.147-217.15c-1.233-22.057 15.647-40.938 37.704-42.172A40 40 0 0 1 505.3 300h13.4z" p-id="8269"></path></svg>